<svg xmlns="http://www.w3.org/2000/svg" xmlns:xlink="http://www.w3.org/1999/xlink" xmlns:lucid="lucid" width="1342" height="1202"><g transform="translate(-528 -304)" lucid:page-tab-id="0_0"><path d="M-1806.87-1258.83h3677.74v3840.5h-3677.74z" fill="#fff"/><path d="M1099.18 462c0-16.57 13.43-30 30-30h620c16.57 0 30 13.43 30 30v908c0 16.57-13.43 30-30 30h-620c-16.57 0-30-13.43-30-30z" stroke="#474747" fill-opacity="0"/><path d="M1207.17 434.4v3.54c0 6.42-7.1 13.05-15.75 13.05h-46.48c-8.65 0-15.75-6.64-15.75-13.06v-3.54z" fill="#9d5125"/><path d="M1159.2 400c8.04 0 14.83 4.4 18.18 11.67 4.6-3.14 10.92-1.98 14.04 2.65 1.17 1.64 1.7 3.32 1.8 5.3 7.87.68 13.95 8.25 13.95 14.27v1.3c0 6.45-7.1 13-15.75 13h-46.48c-8.66 0-15.76-6.55-15.76-13v-1.3c0-5.02 4.2-11.87 10.06-13.56v-.57c.08-10.95 8.97-19.82 19.97-19.77z" fill="#f58535"/><path d="M1148.08 423.13h3.08l3.1 14.58 3.33-14.54h3.07l-4.6 18.2h-3.7zM1162.55 423.13h5.77c3.5 0 5.04 2.2 5.04 5.3 0 3.1-1.9 5.4-5.33 5.4h-2.57v7.53h-2.9zm2.9 8.5h2.08c1.56 0 2.9-.83 2.9-3.14 0-1.98-.78-3.17-3.1-3.17h-1.87zM1187 434.83v.38c0 3.32-1.33 6.52-5.62 6.52-4.6 0-6.04-2.97-6.04-9.47s1.43-9.46 6.05-9.46c5.17 0 5.52 3.8 5.52 5.7v.37h-2.9v-.3c0-1.7-.5-3.64-2.6-3.57-2.08.08-3.1 1.35-3.1 7.22 0 5.87.93 7.3 3.14 7.3 2.42 0 2.7-2.7 2.7-4.42v-.3z" fill="#fff"/><use xlink:href="#a" transform="matrix(1,0,0,1,1099.1808211473567,1370) translate(244.50617283950618 11.11111111111111)"/><use xlink:href="#b" transform="matrix(1,0,0,1,1099.1808211473567,1370) translate(309.7530864197531 11.11111111111111)"/><use xlink:href="#c" transform="matrix(1,0,0,1,1099.1808211473567,1370) translate(382.46913580246917 11.11111111111111)"/><path d="M735.18 402c0-16.57 13.43-30 30-30h1004c16.57 0 30 13.43 30 30v1028c0 16.57-13.43 30-30 30h-1004c-16.57 0-30-13.43-30-30z" stroke="#474747" fill-opacity="0"/><path d="M843.17 374.4v3.54c0 6.42-7.1 13.05-15.75 13.05h-46.48c-8.65 0-15.75-6.64-15.75-13.06v-3.54z" fill="#9d5125"/><path d="M795.2 340c8.04 0 14.83 4.4 18.18 11.67 4.6-3.14 10.92-1.98 14.04 2.65 1.17 1.64 1.7 3.32 1.8 5.3 7.87.68 13.95 8.25 13.95 14.27v1.3c0 6.45-7.1 13-15.75 13h-46.48c-8.66 0-15.76-6.55-15.76-13v-1.3c0-5.02 4.2-11.87 10.06-13.56v-.57c.08-10.95 8.97-19.82 19.97-19.77z" fill="#f58535"/><path d="M784.72 363.13l-5.2 18.2h3.04l1.17-4.43h5.38l1.1 4.43h3.06l-4.78-18.2zm-.47 11.4l2.22-8.98 2.1 8.97zM806.38 377.34h-.03l-2.47-14.2h-3.1l-2.4 14.13h-.06l-2.4-14.14h-2.95l3.54 18.2h3.4l2.33-13.7h.06l2.34 13.7h3.4l3.64-18.2h-2.9l-2.4 14.2zM821.1 371.4l-2-.72c-1.93-.7-2.74-1.53-2.74-3.1-.17-1.26.74-2.43 2-2.6.17-.02.3-.02.46-.02 1.25-.17 2.4.72 2.57 1.96.02.25 0 .44-.02.68v.38h2.93v-.4c0-1.9-.47-4.8-5.17-4.8-3.43 0-5.7 1.84-5.7 5.16 0 2.6 1.1 3.97 3.82 5l2 .68c1.6.23 2.73 1.6 2.64 3.2.02 1.45-1.1 2.64-2.53 2.68h-.26c-2 0-3-1.12-3-3.33v-.47h-2.9v.44c0 2.54 1.02 5.53 5.52 5.53 3.7 0 6.07-1.6 6.07-5.48.02-2.5-1.1-3.9-3.7-4.8z" fill="#fff"/><path d="M1299.18 546c0-3.3 2.7-6 6-6h308c3.3 0 6 2.7 6 6v308c0 3.3-2.7 6-6 6h-308c-3.3 0-6-2.7-6-6z" fill="#248814" fill-opacity=".13"/><path d="M1299.18 540h56v56h-56v-56z" stroke="#fff" stroke-opacity="0" fill="#248814"/><path d="M1342.56 562.18c-.15-.17-.34-.25-.56-.25h-5.15v-5.58c-.03-2.54-.96-4.7-2.84-6.4-1.9-1.84-4.14-2.75-6.76-2.75-2.65 0-4.9.83-6.8 2.62-1.9 1.7-2.87 3.87-2.9 6.4v5.66h-5.15c-.26 0-.44.1-.6.25-.16.17-.22.34-.22.6V588c0 .43.34.8.8.8h29.6c.46 0 .8-.37.8-.8v-25.28c0-.2-.06-.38-.22-.54zm-23.46-5.9c.03-2.13.8-3.88 2.37-5.3 1.62-1.5 3.53-2.2 5.74-2.2 2.23 0 4.13.75 5.72 2.25 1.53 1.4 2.3 3.2 2.3 5.32v5.58h-16.15zm22.1 30.94h-28.03v-23.7h28.02z" stroke="#fff" stroke-opacity="0" fill="#fff"/><path d="M1326.38 577.3v6.25h1.6v-6.23c2.13-.4 3.62-2.2 3.63-4.35 0-2.43-1.96-4.4-4.4-4.43-2.2-.03-4.05 1.5-4.43 3.68-.4 2.4 1.2 4.68 3.6 5.1zm.82-7.15c.78 0 1.44.27 2 .82.54.56.82 1.22.8 2 .03 1.55-1.2 2.8-2.74 2.82h-.06c-1.56.1-2.92-1.06-3.04-2.62-.1-1.56 1.05-2.93 2.6-3.03.16-.02.3-.02.44 0z" stroke="#fff" stroke-opacity="0" fill="#fff"/><use xlink:href="#d" transform="matrix(1,0,0,1,1370.1808211473567,560) translate(0 14.4)"/><use xlink:href="#e" transform="matrix(1,0,0,1,1370.1808211473567,560) translate(53.900000000000006 14.4)"/><path d="M1159.18 510c0-16.57 13.43-30 30-30h520c16.57 0 30 13.43 30 30v800c0 16.57-13.43 30-30 30h-520c-16.57 0-30-13.43-30-30z" fill-opacity="0"/><path d="M1174.22 484.1l3.17-1.7 4.7-1.56 4.93-.76 2.15-.08h14.45m14.44 0h28.9m14.43 0h28.9m14.44 0h28.9m14.43 0h28.9m14.43 0h28.9m14.44 0h28.9m14.43 0h28.9m14.43 0h28.9m14.44 0h28.9m14.43 0h28.9m14.43 0h28.9m14.44 0h14.44l5 .42 4.82 1.22 4.54 2 .62.42m10.93 10.98l1.68 3.17 1.56 4.72.76 4.93.08 2.15v14.8m0 14.83v29.63m0 14.8v29.64m0 14.82v29.63m0 14.8v29.64m0 14.8v29.64m0 14.8v29.64m0 14.82v29.63m0 14.8v29.64m0 14.82v29.6m0 14.83v29.63m0 14.8v29.64m0 14.82v29.63m0 14.8v29.64m0 14.8v29.64m0 14.8v29.64m0 14.82v29.63m0 14.8v29.64m0 14.82v14.8l-.42 5-1.22 4.82-2 4.54-.42.6m-10.98 10.95l-3.17 1.7-4.7 1.56-4.94.76-2.15.08h-14.44m-14.45 0h-28.9m-14.44 0h-28.9m-14.43 0h-28.9m-14.44 0h-28.9m-14.44 0h-28.9m-14.43 0h-28.9m-14.44 0h-28.9m-14.44 0h-28.9m-14.43 0h-28.9m-14.44 0h-28.9m-14.44 0h-28.9m-14.43 0h-14.45l-5-.42-4.82-1.22-4.54-2-.6-.42m-10.95-10.98l-1.7-3.17-1.55-4.72-.76-4.93-.08-2.15v-14.8m0-14.83v-29.63m0-14.8v-29.64m0-14.82v-29.63m0-14.8v-29.64m0-14.8v-29.64m0-14.8v-29.64m0-14.82v-29.63m0-14.8v-29.64m0-14.82v-29.6m0-14.83v-29.63m0-14.8V806.3m0-14.82v-29.63m0-14.8V717.4m0-14.8v-29.64m0-14.8V628.5m0-14.82v-29.63m0-14.8v-29.64m0-14.82V510l.42-5 1.23-4.82 2-4.54.4-.6" stroke="#f7981f" stroke-width="3" fill="none"/><use xlink:href="#f" transform="matrix(1,0,0,1,1159.1808211473567,1310) translate(209.53703703703704 11.11111111111111)"/><use xlink:href="#g" transform="matrix(1,0,0,1,1159.1808211473567,1310) translate(319.9074074074074 11.11111111111111)"/><path d="M1299.18 947.67c0-3.32 2.7-6 6-6h308c3.3 0 6 2.68 6 6v308c0 3.3-2.7 6-6 6h-308c-3.3 0-6-2.7-6-6z" fill="#248814" fill-opacity=".13"/><path d="M1299.18 941.67h56v56h-56v-56z" stroke="#fff" stroke-opacity="0" fill="#248814"/><path d="M1342.56 963.84c-.15-.16-.34-.25-.56-.25h-5.15V958c-.03-2.54-.96-4.7-2.84-6.4-1.9-1.84-4.14-2.75-6.76-2.75-2.65 0-4.9.83-6.8 2.62-1.9 1.7-2.87 3.86-2.9 6.4v5.65h-5.15c-.26 0-.44.08-.6.25-.16.17-.22.33-.22.58v25.3c0 .4.34.8.8.8h29.6c.46 0 .8-.4.8-.8v-25.3c0-.2-.06-.37-.22-.54zm-23.46-5.9c.03-2.13.8-3.87 2.37-5.3 1.62-1.5 3.53-2.2 5.74-2.2 2.23 0 4.13.76 5.72 2.25 1.53 1.4 2.3 3.2 2.3 5.32v5.57h-16.15zm22.1 30.95h-28.03v-23.73h28.02z" stroke="#fff" stroke-opacity="0" fill="#fff"/><path d="M1326.38 978.98v6.24h1.6V979c2.13-.4 3.62-2.2 3.63-4.36 0-2.43-1.96-4.4-4.4-4.43-2.2-.02-4.05 1.5-4.43 3.7-.4 2.4 1.2 4.67 3.6 5.08zm.82-7.16c.78 0 1.44.27 2 .82.54.56.82 1.22.8 2 .03 1.54-1.2 2.8-2.74 2.82h-.06c-1.56.12-2.92-1.05-3.04-2.6-.1-1.57 1.05-2.94 2.6-3.04.16-.02.3-.02.44 0z" stroke="#fff" stroke-opacity="0" fill="#fff"/><use xlink:href="#d" transform="matrix(1,0,0,1,1370.1808211473567,961.6666666666667) translate(0 14.4)"/><use xlink:href="#e" transform="matrix(1,0,0,1,1370.1808211473567,961.6666666666667) translate(53.900000000000006 14.4)"/><path d="M1339.18 616c0-3.3 2.7-6 6-6h228c3.3 0 6 2.7 6 6v218c0 3.3-2.7 6-6 6h-228c-3.3 0-6-2.7-6-6z" fill="#fff" fill-opacity="0"/><path d="M1362.28 610h11.4m11.4 0h11.4m11.4 0h11.4m11.4 0h11.4m11.4 0h11.4m11.4 0h11.4m11.4 0h11.4m11.4 0h11.4m11.4 0h11.4m11.4 0h5.7l3.03.82 2.16 2.15.82 3.03v6.06m0 12.1v12.12m0 12.1v12.12m0 12.1v12.12m0 12.1v12.12m0 12.12v12.1m0 12.12v12.1m0 12.12v12.1m0 12.12v12.1m0 12.12V834l-.82 3.03-2.15 2.15-3.02.82h-5.7m-11.4 0h-11.4m-11.4 0h-11.4m-11.4 0h-11.4m-11.4 0h-11.4m-11.4 0h-11.4m-11.4 0h-11.4m-11.4 0h-11.4m-11.4 0h-11.4m-11.4 0h-11.4m-11.4 0h-5.7l-3.03-.82-2.15-2.15-.82-3.03v-6.06m0-12.1V803.7m0-12.1V779.5m0-12.1v-12.12m0-12.1v-12.12m0-12.12v-12.1m0-12.12v-12.1m0-12.12v-12.1m0-12.12v-12.1m0-12.12V616l.82-3.03 2.15-2.15 3.03-.82h5.7" stroke="#d86613" stroke-width="3" fill="none"/><path d="M1339.18 610h56v56h-56v-56z" stroke="#fff" stroke-opacity="0" stroke-width="2" fill="#d86613"/><path d="M1384.36 640.24h-3.75v-1.48h3.76v-17.94h-17.94v3.74h-1.5v-3.74c0-.82.68-1.5 1.5-1.5h17.94c.8 0 1.48.68 1.48 1.5v17.94c0 .8-.67 1.48-1.48 1.48zM1367.93 656.67H1350c-.82 0-1.5-.67-1.5-1.5v-17.93c0-.8.68-1.48 1.5-1.48h3.73v1.48H1350v17.94h17.93v-3.74h1.48v3.74c0 .82-.66 1.5-1.47 1.5z" stroke="#fff" stroke-opacity="0" stroke-width="2" fill="#fff"/><path d="M1379.13 631.3v-1.52h-2.25c-.05-.8-.7-1.43-1.48-1.48v-2.25h-1.5v2.25h-2.23v-2.25h-1.5v2.25h-2.25v-2.25h-1.48v2.25h-2.25v-2.25h-1.5v2.25h-2.23v-2.25h-1.5v2.25c-.8.05-1.44.7-1.5 1.48h-2.24v1.5h2.25v2.25h-2.25V635h2.25v2.26h-2.25v1.48h2.25V641h-2.25v1.5h2.25v2.2h-2.25v1.52h2.25c.05.8.7 1.43 1.48 1.48v2.25h1.5v-2.25h2.25v2.25h1.5v-2.25h2.24v2.25h1.48v-2.25h2.25v2.25h1.5v-2.25h2.22v2.25h1.5v-2.25c.8-.05 1.43-.7 1.48-1.48h2.25v-1.5h-2.25v-2.23h2.25V641h-2.25v-2.26h2.25v-1.48h-2.25V635h2.25v-1.47h-2.25v-2.24zm-3.73 14.78c0 .07-.07.14-.14.14h-16.16c-.07 0-.14-.07-.14-.14v-16.16c0-.07.07-.14.14-.14h16.16c.07 0 .14.07.14.14z" stroke="#fff" stroke-opacity="0" stroke-width="2" fill="#fff"/><use xlink:href="#h" transform="matrix(1,0,0,1,1410.1808211473567,630) translate(0 14.4)"/><use xlink:href="#i" transform="matrix(1,0,0,1,1410.1808211473567,630) translate(41.95 14.4)"/><use xlink:href="#j" transform="matrix(1,0,0,1,1410.1808211473567,630) translate(81.9 14.4)"/><path d="M1339.18 1016c0-3.3 2.7-6 6-6h228c3.3 0 6 2.7 6 6v218c0 3.3-2.7 6-6 6h-228c-3.3 0-6-2.7-6-6z" fill="#fff" fill-opacity="0"/><path d="M1362.28 1010h11.4m11.4 0h11.4m11.4 0h11.4m11.4 0h11.4m11.4 0h11.4m11.4 0h11.4m11.4 0h11.4m11.4 0h11.4m11.4 0h11.4m11.4 0h5.7l3.03.82 2.16 2.15.82 3.03v6.06m0 12.1v12.12m0 12.1v12.12m0 12.1v12.12m0 12.1v12.12m0 12.12v12.1m0 12.12v12.1m0 12.12v12.1m0 12.12v12.1m0 12.12v6.06l-.82 3.03-2.15 2.15-3.02.82h-5.7m-11.4 0h-11.4m-11.4 0h-11.4m-11.4 0h-11.4m-11.4 0h-11.4m-11.4 0h-11.4m-11.4 0h-11.4m-11.4 0h-11.4m-11.4 0h-11.4m-11.4 0h-11.4m-11.4 0h-5.7l-3.03-.82-2.15-2.15-.82-3.03v-6.06m0-12.1v-12.12m0-12.1v-12.12m0-12.1v-12.12m0-12.1v-12.12m0-12.12v-12.1m0-12.12v-12.1m0-12.12v-12.1m0-12.12v-12.1m0-12.12V1016l.82-3.03 2.15-2.15 3.03-.82h5.7" stroke="#d86613" stroke-width="3" fill="none"/><path d="M1339.18 1010h56v56h-56v-56z" stroke="#fff" stroke-opacity="0" stroke-width="2" fill="#d86613"/><path d="M1384.36 1040.24h-3.75v-1.48h3.76v-17.94h-17.94v3.74h-1.5v-3.74c0-.82.68-1.5 1.5-1.5h17.94c.8 0 1.48.68 1.48 1.5v17.94c0 .8-.67 1.48-1.48 1.48zM1367.93 1056.67H1350c-.82 0-1.5-.67-1.5-1.5v-17.93c0-.8.68-1.48 1.5-1.48h3.73v1.48H1350v17.94h17.93v-3.74h1.48v3.74c0 .82-.66 1.5-1.47 1.5z" stroke="#fff" stroke-opacity="0" stroke-width="2" fill="#fff"/><path d="M1379.13 1031.3v-1.52h-2.25c-.05-.8-.7-1.43-1.48-1.48v-2.25h-1.5v2.25h-2.23v-2.25h-1.5v2.25h-2.25v-2.25h-1.48v2.25h-2.25v-2.25h-1.5v2.25h-2.23v-2.25h-1.5v2.25c-.8.05-1.44.7-1.5 1.48h-2.24v1.5h2.25v2.25h-2.25v1.48h2.25v2.26h-2.25v1.48h2.25v2.25h-2.25v1.5h2.25v2.2h-2.25v1.52h2.25c.05.8.7 1.43 1.48 1.48v2.25h1.5v-2.25h2.25v2.25h1.5v-2.25h2.24v2.25h1.48v-2.25h2.25v2.25h1.5v-2.25h2.22v2.25h1.5v-2.25c.8-.05 1.43-.7 1.48-1.48h2.25v-1.5h-2.25v-2.23h2.25v-1.5h-2.25v-2.26h2.25v-1.48h-2.25V1035h2.25v-1.47h-2.25v-2.24zm-3.73 14.78c0 .07-.07.14-.14.14h-16.16c-.07 0-.14-.07-.14-.14v-16.16c0-.07.07-.14.14-.14h16.16c.07 0 .14.07.14.14z" stroke="#fff" stroke-opacity="0" stroke-width="2" fill="#fff"/><use xlink:href="#h" transform="matrix(1,0,0,1,1410.1808211473567,1030) translate(0 14.4)"/><use xlink:href="#i" transform="matrix(1,0,0,1,1410.1808211473567,1030) translate(41.95 14.4)"/><use xlink:href="#j" transform="matrix(1,0,0,1,1410.1808211473567,1030) translate(81.9 14.4)"/><path d="M576.83 889.5h-15.55c-.7 0-1.28-.57-1.28-1.27v-1.9c0-7.12 4.68-13.1 11.62-14.76.32-.07.6-.03.9.13 2.05 1.1 4.26 1.1 6.3 0 .3-.16.6-.2.92-.13 1.82.45 3.32 1.1 4.87 2.14l-1.42 2.13c-1.15-.75-2.24-1.26-3.6-1.62-2.57 1.2-5.23 1.2-7.82 0-5.53 1.56-9.2 6.4-9.2 12.12v.63h14.27z" stroke="#fff" stroke-opacity="0" fill="#232f3e"/><path d="M575.66 875c-4.63 0-8.38-3.73-8.38-8.35 0-4.6 3.75-8.36 8.38-8.36 4.62-.06 8.4 3.66 8.44 8.25.04 3.2-1.58 5.92-4.4 7.43-1.28.72-2.55 1.03-4.04 1.03zm0-14.16c-3.23 0-5.87 2.6-5.9 5.8 0 2.2 1.12 4.08 3.05 5.1 1.85 1 3.87 1 5.7 0 1.95-1.04 3.08-2.95 3.05-5.17-.04-3.2-2.68-5.75-5.9-5.72zM618.74 889.5h-15.56v-2.55h14.28v-.62c0-5.75-3.67-10.58-9.2-12.13-2.6 1.2-5.25 1.2-7.84 0-1.36.38-2.47.9-3.63 1.7l-1.46-2.1c1.55-1.07 3.06-1.75 4.88-2.22.32-.07.64-.03.94.13 2.02 1.1 4.27 1.1 6.3 0 .3-.15.6-.2.92-.12 6.93 1.67 11.62 7.64 11.62 14.75v1.9c0 .7-.57 1.26-1.26 1.27z" stroke="#fff" stroke-opacity="0" fill="#232f3e"/><path d="M604.3 875c-4.65 0-8.4-3.78-8.4-8.43s3.8-8.4 8.45-8.4c4.66 0 8.42 3.8 8.42 8.44 0 3.17-1.6 5.87-4.4 7.4-1.3.7-2.57 1-4.06 1zm0-14.15c-3.2-.02-5.85 2.57-5.86 5.8-.02 2.2 1.1 4.07 3.04 5.1 1.82 1 3.84 1 5.7 0 1.96-1.05 3.1-2.97 3.06-5.2-.07-3.2-2.72-5.77-5.93-5.7zM610.4 918.17h-40.84c-.7 0-1.26-.56-1.26-1.27v-2.7c-.04-9.82 6.46-18.07 16-20.4.34-.1.65-.04.95.1 3.03 1.64 6.37 1.64 9.45 0 .26-.14.56-.2.9-.1 9.6 2.3 16.1 10.55 16.05 20.4v2.7c0 .7-.57 1.27-1.26 1.27zm-39.54-2.54h38.23v-1.44c0-8.46-5.47-15.56-13.66-17.76-3.6 1.74-7.37 1.74-10.97 0-8.2 2.2-13.6 9.3-13.6 17.75z" stroke="#fff" stroke-opacity="0" fill="#232f3e"/><path d="M590.02 897.65c-2.03 0-3.75-.44-5.54-1.4-5.57-3.05-7.62-10-4.58-15.58 3.06-5.55 10.02-7.6 15.6-4.56 5.58 3.06 7.62 10 4.6 15.58-1.12 2.02-2.56 3.47-4.6 4.57-1.76.96-3.48 1.4-5.48 1.4zm0-20.07c-3.34-.05-6.2 1.63-7.82 4.56-2.3 4.25-.74 9.57 3.52 11.88 2.76 1.47 5.8 1.47 8.55 0 2.97-1.6 4.67-4.47 4.62-7.82-.08-4.82-4.05-8.7-8.88-8.62z" stroke="#fff" stroke-opacity="0" fill="#232f3e"/><path d="M619.08 889.5h-29.8c-.5 0-.9-.4-.9-.92v-1.98c-.04-7.16 4.7-13.18 11.66-14.87.26-.07.48-.03.7.07 2.2 1.2 4.65 1.2 6.9 0 .18-.1.4-.14.66-.07 7 1.68 11.73 7.7 11.7 14.87v1.98c0 .52-.4.92-.92.92zm-28.84-1.85h27.9v-1.05c0-6.16-4-11.34-9.97-12.94-2.62 1.26-5.37 1.26-8 0-5.98 1.6-9.93 6.78-9.93 12.94z" stroke="#fff" stroke-opacity="0" stroke-width=".73" fill="#fff" fill-opacity="0"/><path d="M590.7 889.5h-29.78c-.5 0-.92-.4-.92-.92v-1.98c-.03-7.16 4.7-13.18 11.67-14.87.25-.07.47-.03.7.07 2.2 1.2 4.64 1.2 6.9 0 .18-.1.4-.14.65-.07 7 1.68 11.74 7.7 11.7 14.87v1.98c0 .52-.4.92-.9.92zm-28.83-1.85h27.9v-1.05c0-6.16-4-11.34-9.97-12.94-2.63 1.26-5.38 1.26-8 0-5.98 1.6-9.93 6.78-9.93 12.94z" stroke="#fff" stroke-opacity="0" stroke-width=".73" fill="#fff" fill-opacity="0"/><use xlink:href="#k" transform="matrix(1,0,0,1,530,927.1666666666667) translate(31.049382716049386 17.77777777777778)"/><path d="M1327 1520c-.65.06-1.16.2-1.68.45l-22.2 10.94c-1.22.57-2.05 1.6-2.3 2.94l-5.5 24.64c-.27 1.15-.08 2.3.56 3.32.07.13.13.2.26.32l15.36 19.72c.83 1.08 1.98 1.66 3.33 1.66h24.7c1.35 0 2.5-.58 3.33-1.66l15.36-19.72c.83-1.08 1.15-2.36.83-3.7l-5.5-24.58c-.26-1.35-1.1-2.37-2.3-2.95l-22.2-10.95c-.72-.32-1.36-.5-2.06-.45z" stroke="#fff" stroke-width="0" fill="#326ce5"/><path d="M1327.18 1528.38c-.75 0-1.3.66-1.3 1.5v.44c0 .47.08.85.13 1.27.15.94.24 1.74.2 2.5-.1.28-.3.52-.47.7v.57c-.8.1-1.6.2-2.44.38-3.44.8-6.44 2.65-8.7 5.15-.13-.1-.4-.28-.46-.38-.23.05-.47.14-.8-.05-.6-.42-1.12-1-1.78-1.7-.33-.33-.5-.6-.9-.94-.08-.1-.18-.2-.27-.24-.3-.24-.62-.38-.95-.38-.42 0-.8.14-1.08.47-.47.6-.28 1.5.33 2.02l.05.05c.04.04.18.14.23.2.42.27.75.46 1.13.65.8.52 1.46.94 1.98 1.46.23.24.23.6.28.8l.42.38c-2.3 3.54-3.33 7.94-2.72 12.38l-.56.2c-.14.18-.33.46-.57.55-.7.23-1.45.32-2.4.42-.4.05-.8 0-1.25.1-.1 0-.24.04-.38.1-.8.18-1.3.93-1.13 1.64.15.76.9 1.18 1.7 1.04 0 0 .04 0 .04-.05.15 0 .3-.04.4-.04.4-.14.74-.33 1.16-.47.9-.33 1.6-.6 2.34-.7.3-.05.6.18.75.28l.57-.13c1.36 4.3 4.12 7.74 7.7 9.92l-.25.55c.1.24.2.57.1.8-.24.67-.7 1.42-1.17 2.23-.3.37-.52.66-.75 1.08-.05.1-.1.3-.15.38-.37.76-.1 1.6.57 1.94.65.33 1.45 0 1.83-.76.04-.1.14-.23.18-.38.2-.42.24-.8.38-1.22.33-.9.52-1.9 1.03-2.46.13-.2.32-.24.55-.28l.3-.57c3.08 1.24 6.55 1.52 10.02.72.75-.2 1.55-.43 2.26-.7.1.18.28.46.28.5.24.1.52.15.7.43.4.66.62 1.42.9 2.32.14.42.24.85.42 1.27l.14.33c.38.76 1.18 1.14 1.83.8.65-.32.93-1.17.56-1.93l-.14-.38c-.24-.42-.47-.7-.7-1.08-.52-.85-.95-1.52-1.23-2.22-.1-.33.04-.57.13-.8-.1-.05-.18-.38-.23-.53 3.66-2.26 6.38-5.85 7.64-9.96.2 0 .47.1.6.1.2-.15.4-.34.72-.3.75.1 1.45.4 2.34.72.43.13.75.32 1.18.46.1.05.23.05.37.1h.05c.8.18 1.55-.3 1.7-1 .17-.75-.34-1.5-1.14-1.7-.1 0-.28-.05-.37-.1-.48-.1-.86-.04-1.28-.1-.94-.08-1.7-.18-2.4-.4-.27-.1-.46-.44-.56-.58l-.56-.2c.28-2.07.24-4.2-.28-6.37-.47-2.16-1.3-4.2-2.5-5.94l.48-.42c.05-.3 0-.52.28-.8.52-.48 1.18-.9 1.97-1.42.38-.24.7-.38 1.08-.66.1-.1.24-.2.33-.24.6-.52.75-1.47.33-2.03-.48-.63-1.37-.67-2.03-.15-.1.1-.18.18-.28.23-.38.33-.57.66-.9 1-.66.66-1.17 1.22-1.78 1.65-.28.14-.66.1-.8.1l-.52.37c-2.9-3.12-6.8-5.1-11.07-5.53v-.6c-.18-.15-.42-.3-.46-.67-.05-.76.04-1.56.18-2.5.05-.43.14-.8.14-1.28v-.43c0-.86-.57-1.52-1.32-1.52zm-1.7 10.63l-.36 7.24h-.05c0 .66-.52 1.18-1.17 1.18-.24 0-.47-.1-.66-.24h-.05l-5.73-4.2c1.78-1.8 4.04-3.07 6.62-3.7.45-.13.92-.18 1.4-.27zm3.4 0c3 .4 5.8 1.8 7.96 3.98l-5.72 4.16c-.5.37-1.22.28-1.6-.24-.18-.2-.28-.43-.28-.66zm-13.47 6.67l5.26 4.82-.05.04c.48.42.58 1.13.2 1.65-.2.23-.37.32-.6.4h-.05l-6.67 2.05c-.37-3.22.38-6.38 1.93-8.98zm23.5 0c.8 1.32 1.37 2.74 1.74 4.35.33 1.56.42 3.07.28 4.58l-6.75-2v-.03c-.6-.14-1-.8-.84-1.42.1-.28.18-.47.37-.66l5.2-4.83zm-12.8 5.2h2.16l1.3 1.7-.46 2.17-1.92.94-1.92-.94-.47-2.17zm6.9 5.85c.04 0 .14 0 .23.05h.05l6.9 1.18c-1 2.93-2.96 5.48-5.54 7.18l-2.67-6.7c-.24-.57 0-1.28.56-1.56.14-.1.28-.1.47-.15zm-11.68.05c.56 0 1.03.38 1.12.95.1.23.05.52-.04.75l-2.63 6.66c-2.53-1.65-4.5-4.1-5.54-7.13l6.85-1.23h.24zm5.8 2.93c.2-.05.4 0 .58.1.23.14.42.28.5.5h.06l3.38 6.34c-.47.15-.9.3-1.36.38-2.58.62-5.16.43-7.5-.42l3.37-6.3c.2-.36.56-.6.98-.6z" stroke="#fff" stroke-width=".05" fill="#fff"/><path d="M1458.95 687c-.76.08-1.37.23-1.97.53l-26.38 13c-1.44.68-2.43 1.9-2.73 3.5l-6.54 29.25c-.3 1.37-.07 2.74.7 3.96.06.15.14.22.3.38l18.23 23.4c1 1.3 2.36 1.98 3.95 1.98h29.35c1.6 0 2.96-.68 3.95-1.98l18.24-23.4c1-1.3 1.37-2.82 1-4.4l-6.55-29.2c-.3-1.6-1.3-2.8-2.74-3.5l-26.38-13c-.83-.37-1.6-.6-2.43-.52z" stroke="#fff" stroke-width="0" fill="#326ce5"/><path d="M1459.18 696.95c-.9 0-1.56.8-1.56 1.8v.5c0 .56.1 1 .17 1.52.16 1.12.27 2.07.2 2.97-.1.34-.32.62-.55.84v.68c-.94.1-1.9.22-2.9.44-4.06.96-7.62 3.15-10.3 6.12-.16-.1-.5-.34-.55-.45-.28.06-.56.17-.95-.06-.72-.5-1.34-1.16-2.12-2-.4-.4-.6-.73-1.06-1.13-.1-.1-.22-.22-.33-.28-.33-.3-.72-.46-1.1-.46-.52 0-.96.17-1.3.56-.55.73-.33 1.8.4 2.42l.05.05c.05.06.2.17.27.23.5.33.9.56 1.34.78.95.62 1.73 1.12 2.35 1.74.27.28.27.73.33.95l.5.45c-2.73 4.2-3.95 9.43-3.23 14.7l-.67.22c-.17.23-.4.57-.67.68-.82.28-1.7.4-2.83.5-.5.06-.94 0-1.5.1-.1 0-.28.07-.45.13-.94.22-1.56 1.12-1.33 1.96.15.9 1.04 1.4 2 1.24 0 0 .05 0 .05-.05.16 0 .33-.07.44-.07.5-.17.88-.4 1.4-.56 1.04-.4 1.88-.73 2.77-.84.33-.06.72.22.9.34l.66-.17c1.62 5.1 4.9 9.2 9.13 11.78l-.27.67c.1.28.2.67.1.95-.28.8-.84 1.7-1.4 2.64-.33.45-.6.8-.9 1.3-.04.1-.1.33-.15.44-.45.9-.1 1.9.67 2.3.78.4 1.72 0 2.17-.9.04-.1.15-.28.2-.45.23-.5.3-.95.46-1.46.4-1.06.6-2.24 1.22-2.9.17-.24.4-.3.67-.35l.33-.67c3.68 1.46 7.8 1.8 11.92.84.9-.23 1.84-.52 2.68-.85.1.22.33.56.33.62.3.1.62.16.85.5.44.8.72 1.68 1.06 2.75.17.5.28 1 .5 1.5l.17.4c.45.9 1.4 1.35 2.18.96.78-.4 1.1-1.4.66-2.3-.04-.17-.1-.34-.15-.45-.28-.5-.56-.84-.84-1.3-.6-1-1.1-1.78-1.44-2.63-.1-.4.06-.67.17-.95-.1-.06-.22-.45-.28-.62 4.35-2.7 7.58-6.95 9.08-11.83.22 0 .56.1.73.1.22-.16.44-.38.83-.33.88.12 1.72.45 2.78.84.5.18.9.4 1.4.58.1.05.27.05.43.1h.07c.95.23 1.84-.33 2-1.17.23-.9-.38-1.8-1.33-2-.1 0-.34-.07-.45-.12-.56-.1-1-.06-1.5-.1-1.12-.13-2.02-.24-2.85-.52-.34-.1-.56-.5-.67-.67l-.67-.24c.35-2.46.3-5-.32-7.57-.56-2.6-1.56-5-2.95-7.08.16-.17.5-.45.55-.5.06-.34 0-.62.34-.96.6-.56 1.4-1.06 2.34-1.68.44-.28.83-.45 1.28-.78.1-.12.28-.23.4-.28.7-.62.88-1.74.38-2.42-.56-.73-1.62-.78-2.4-.16-.1.1-.22.22-.33.28-.46.4-.68.78-1.07 1.17-.78.78-1.4 1.45-2.12 1.96-.32.17-.77.1-.93.1l-.62.46c-3.45-3.7-8.07-6.06-13.14-6.56v-.73c-.22-.17-.5-.34-.55-.8-.06-.9.06-1.84.22-2.96.06-.5.17-.96.17-1.52v-.5c0-1-.67-1.8-1.56-1.8zm-2 12.62l-.45 8.6h-.06c0 .77-.6 1.4-1.4 1.4-.27 0-.55-.12-.77-.3h-.05l-6.8-4.98c2.12-2.14 4.8-3.66 7.85-4.4.56-.16 1.12-.2 1.68-.33zm4 0c3.57.45 6.9 2.14 9.48 4.72l-6.8 4.92c-.6.45-1.45.34-1.9-.28-.22-.22-.33-.5-.33-.78zm-15.98 7.9l6.24 5.74-.06.06c.56.5.67 1.35.23 1.96-.22.3-.44.4-.72.5h-.05l-7.9 2.42c-.46-3.8.43-7.57 2.27-10.66zm27.9 0c.95 1.58 1.62 3.27 2.07 5.17.4 1.86.5 3.65.33 5.45l-8.02-2.37v-.06c-.72-.16-1.17-.95-1-1.68.1-.35.22-.57.44-.8l6.2-5.72zm-15.2 6.18h2.56l1.56 2.02-.56 2.58-2.28 1.13-2.28-1.13-.56-2.58zm8.2 6.96c.04 0 .15 0 .27.07h.05l8.2 1.4c-1.18 3.48-3.52 6.5-6.58 8.52l-3.18-7.97c-.28-.67 0-1.52.67-1.85.17-.1.33-.1.56-.17zm-13.88.07c.67 0 1.22.44 1.34 1.12.1.27.05.6-.06.9l-3.12 7.9c-3-1.97-5.35-4.9-6.57-8.48l8.14-1.45h.28zm6.9 3.47c.23-.05.45 0 .67.12.27.16.5.33.6.6h.06l4 7.53c-.54.16-1.05.33-1.6.44-3.07.73-6.13.5-8.9-.5l4-7.47c.22-.45.66-.73 1.17-.73z" stroke="#fff" stroke-width=".05" fill="#fff"/><use xlink:href="#l" transform="matrix(1,0,0,1,1391.1808211473567,772) translate(22.025 14.4)"/><use xlink:href="#m" transform="matrix(1,0,0,1,1391.1808211473567,772) translate(39.574999999999996 36)"/><path d="M1458.95 1087c-.76.08-1.37.23-1.97.53l-26.38 13c-1.44.68-2.43 1.9-2.73 3.5l-6.54 29.25c-.3 1.37-.07 2.74.7 3.96.06.15.14.22.3.38l18.23 23.4c1 1.3 2.36 1.98 3.95 1.98h29.35c1.6 0 2.96-.68 3.95-1.98l18.24-23.4c1-1.3 1.37-2.82 1-4.4l-6.55-29.2c-.3-1.6-1.3-2.8-2.74-3.5l-26.38-13c-.83-.37-1.6-.6-2.43-.52z" stroke="#fff" stroke-width="0" fill="#326ce5"/><path d="M1459.18 1096.95c-.9 0-1.56.8-1.56 1.8v.5c0 .56.1 1 .17 1.52.16 1.12.27 2.07.2 2.97-.1.34-.32.62-.55.84v.68c-.94.1-1.9.22-2.9.44-4.06.96-7.62 3.15-10.3 6.12-.16-.1-.5-.34-.55-.45-.28.06-.56.17-.95-.06-.72-.5-1.34-1.16-2.12-2-.4-.4-.6-.73-1.06-1.13-.1-.1-.22-.22-.33-.28-.33-.3-.72-.46-1.1-.46-.52 0-.96.17-1.3.56-.55.73-.33 1.8.4 2.42l.05.05c.05.06.2.17.27.23.5.33.9.56 1.34.78.95.62 1.73 1.12 2.35 1.74.27.28.27.73.33.95l.5.45c-2.73 4.2-3.95 9.43-3.23 14.7l-.67.22c-.17.23-.4.57-.67.68-.82.28-1.7.4-2.83.5-.5.06-.94 0-1.5.1-.1 0-.28.07-.45.13-.94.22-1.56 1.12-1.33 1.96.15.9 1.04 1.4 2 1.24 0 0 .05 0 .05-.05.16 0 .33-.07.44-.07.5-.17.88-.4 1.4-.56 1.04-.4 1.88-.73 2.77-.84.33-.06.72.22.9.34l.66-.17c1.62 5.1 4.9 9.2 9.13 11.78l-.27.67c.1.28.2.67.1.95-.28.8-.84 1.7-1.4 2.64-.33.45-.6.8-.9 1.3-.04.1-.1.33-.15.44-.45.9-.1 1.9.67 2.3.78.4 1.72 0 2.17-.9.04-.1.15-.28.2-.45.23-.5.3-.95.46-1.46.4-1.06.6-2.24 1.22-2.9.17-.24.4-.3.67-.35l.33-.67c3.68 1.46 7.8 1.8 11.92.84.9-.23 1.84-.52 2.68-.85.1.22.33.56.33.62.3.1.62.16.85.5.44.8.72 1.68 1.06 2.75.17.5.28 1 .5 1.5l.17.4c.45.9 1.4 1.35 2.18.96.78-.4 1.1-1.4.66-2.3-.04-.17-.1-.34-.15-.45-.28-.5-.56-.84-.84-1.3-.6-1-1.1-1.78-1.44-2.63-.1-.4.06-.67.17-.95-.1-.06-.22-.45-.28-.62 4.35-2.7 7.58-6.95 9.08-11.83.22 0 .56.1.73.1.22-.16.44-.38.83-.33.88.12 1.72.45 2.78.84.5.18.9.4 1.4.58.1.05.27.05.43.1h.07c.95.23 1.84-.33 2-1.17.23-.9-.38-1.8-1.33-2-.1 0-.34-.07-.45-.12-.56-.1-1-.06-1.5-.1-1.12-.13-2.02-.24-2.85-.52-.34-.1-.56-.5-.67-.67l-.67-.24c.35-2.46.3-5-.32-7.57-.56-2.6-1.56-5-2.95-7.08.16-.17.5-.45.55-.5.06-.34 0-.62.34-.96.6-.56 1.4-1.06 2.34-1.68.44-.28.83-.45 1.28-.78.1-.12.28-.23.4-.28.7-.62.88-1.74.38-2.42-.56-.73-1.62-.78-2.4-.16-.1.1-.22.22-.33.28-.46.4-.68.78-1.07 1.17-.78.78-1.4 1.45-2.12 1.96-.32.17-.77.1-.93.1l-.62.46c-3.45-3.7-8.07-6.06-13.14-6.56v-.73c-.22-.17-.5-.34-.55-.8-.06-.9.06-1.84.22-2.96.06-.5.17-.96.17-1.52v-.5c0-1-.67-1.8-1.56-1.8zm-2 12.62l-.45 8.6h-.06c0 .77-.6 1.4-1.4 1.4-.27 0-.55-.12-.77-.3h-.05l-6.8-4.98c2.12-2.14 4.8-3.66 7.85-4.4.56-.16 1.12-.2 1.68-.33zm4 0c3.57.45 6.9 2.14 9.48 4.72l-6.8 4.92c-.6.45-1.45.34-1.9-.28-.22-.22-.33-.5-.33-.78zm-15.98 7.9l6.24 5.74-.06.06c.56.5.67 1.35.23 1.96-.22.3-.44.4-.72.5h-.05l-7.9 2.42c-.46-3.8.43-7.57 2.27-10.66zm27.9 0c.95 1.58 1.62 3.27 2.07 5.17.4 1.86.5 3.65.33 5.45l-8.02-2.37v-.06c-.72-.16-1.17-.95-1-1.68.1-.35.22-.57.44-.8l6.2-5.72zm-15.2 6.18h2.56l1.56 2.02-.56 2.58-2.28 1.13-2.28-1.13-.56-2.58zm8.2 6.96c.04 0 .15 0 .27.07h.05l8.2 1.4c-1.18 3.48-3.52 6.5-6.58 8.52l-3.18-7.97c-.28-.67 0-1.52.67-1.85.17-.1.33-.1.56-.17zm-13.88.07c.67 0 1.22.44 1.34 1.12.1.27.05.6-.06.9l-3.12 7.9c-3-1.97-5.35-4.9-6.57-8.48l8.14-1.45h.28zm6.9 3.47c.23-.05.45 0 .67.12.27.16.5.33.6.6h.06l4 7.53c-.54.16-1.05.33-1.6.44-3.07.73-6.13.5-8.9-.5l4-7.47c.22-.45.66-.73 1.17-.73z" stroke="#fff" stroke-width=".05" fill="#fff"/><use xlink:href="#l" transform="matrix(1,0,0,1,1391.1808211473567,1172) translate(22.025 14.4)"/><use xlink:href="#m" transform="matrix(1,0,0,1,1391.1808211473567,1172) translate(39.574999999999996 36)"/><path d="M1071.46 879.48c0 17.76-16 32.18-35.73 32.18-19.72 0-35.73-14.42-35.73-32.18 0-17.76 16-32.17 35.73-32.17 19.73 0 35.73 14.42 35.73 32.18z" fill="#9d5025"/><path d="M1071.46 876.84c0 17.76-16 32.18-35.73 32.18-19.72 0-35.73-14.42-35.73-32.18 0-17.76 16-32.17 35.73-32.17 19.73 0 35.73 14.4 35.73 32.17z" fill="#f58536"/><path d="M1046.15 850.85v11.7h-20.85v-11.7h20.85zM1062.28 884.67v9.5h-10.56v-9.5h10.56zM1048.92 884.67v9.5h-10.56v-9.5h10.56zM1032.66 884.67v9.5h-10.56v-9.5h10.56zM1019.3 884.67v9.5h-10.57v-9.5h10.57z" fill="#fff"/><path d="M1013.06 876.43h1.9v9.33h-1.9v-9.33z" fill="#fff"/><path d="M1013.06 876.43h15.27v1.7h-15.27v-1.7z" fill="#fff"/><path d="M1026.43 876.43h1.9v9.33h-1.9v-9.33zM1042.7 876.43h1.9v9.33h-1.9v-9.33z" fill="#fff"/><path d="M1042.7 876.43h15.26v1.7h-15.27v-1.7z" fill="#fff"/><path d="M1056.06 876.43h1.9v9.33h-1.9v-9.33zM1019.76 869.76h1.9v7.52h-1.9v-7.52zM1034.77 860.8h1.9v9.1h-1.9v-9.1z" fill="#fff"/><path d="M1019.76 869.05h31.55v1.7h-31.54v-1.7z" fill="#fff"/><path d="M1049.4 869.76h1.9v7.52h-1.9v-7.52z" fill="#fff"/><use xlink:href="#n" transform="matrix(1,0,0,1,1000.0000000000002,911.6666666666667) translate(-18.2283950617284 17.77777777777778)"/><use xlink:href="#o" transform="matrix(1,0,0,1,1000.0000000000002,911.6666666666667) translate(11.308641975308642 44.44444444444444)"/><use xlink:href="#p" transform="matrix(1,0,0,1,1000.0000000000002,911.6666666666667) translate(-7.765432098765437 71.11111111111111)"/><path d="M771.46 889.48c0 17.76-16 32.18-35.73 32.18-19.72 0-35.73-14.42-35.73-32.18 0-17.76 16-32.17 35.73-32.17 19.73 0 35.73 14.42 35.73 32.18z" fill="#9d5025"/><path d="M700 886.84h71.46v2.64H700v-2.64z" fill="#9d5025"/><path d="M771.46 886.84c0 17.76-16 32.18-35.73 32.18-19.72 0-35.73-14.42-35.73-32.18 0-17.76 16-32.17 35.73-32.17 19.73 0 35.73 14.4 35.73 32.17z" fill="#f58536"/><path d="M708.8 890.04v-.83c.26-3.9 2.68-7.15 6.6-8.85.4-7.18 7.17-12.72 15.2-12.35 5 .2 9.2 2.5 11.72 6.4 4.1-1.54 8.78.16 10.5 3.8.27.54.43.97.54 1.5 5.38.96 9.26 5.6 9.26 9.5v.78c0 4.77-5.5 8.95-11.74 8.95h-30.4c-6.2.03-11.7-4.15-11.7-8.9z" fill="#fff"/><path d="M743.05 877.83l-2.28 1.4-1.17-2.25c-1.77-3.54-5.4-5.7-9.73-5.74h-.04c-5.9 0-10.76 4.34-10.76 9.7v1.82l-1.67.44c-2.84 1.02-4.7 3.26-4.94 6.02v.78c0 2.6 3.54 5.64 8.06 5.64h30.44c4.56 0 8.06-3.03 8.06-5.64v-.78c0-2.63-3.26-6.07-7.03-6.34l-2.06-.15-.14-1.83c0-.78-.28-1.4-.75-2.05-1.35-1.78-4.05-2.22-6-1z" fill="#f58536"/><use xlink:href="#q" transform="matrix(1,0,0,1,699.9999999999999,921.6666666666667) translate(-1.6234567901234556 17.77777777777778)"/><use xlink:href="#r" transform="matrix(1,0,0,1,699.9999999999999,921.6666666666667) translate(-5.327160493827158 44.44444444444444)"/><path d="M621 888.17h60.5" stroke="#5e5e5e" stroke-width="2" fill="none"/><path d="M621.03 889.17h-1.27l.24-.6v-1.4h1.03" fill="#5e5e5e"/><path d="M696.76 888.17l-14.26 4.63v-9.27z" stroke="#5e5e5e" stroke-width="2" fill="#5e5e5e"/><path d="M1072.33 881.38h106.93c3.3 0 6 2.7 6 6v208.3c0 3.3 2.68 6 6 6h89.42" stroke="#5e5e5e" stroke-width="2" fill="none"/><path d="M1072.36 882.38h-1.1l.14-2h.96" fill="#5e5e5e"/><path d="M1295.94 1101.67l-14.26 4.63v-9.27z" stroke="#5e5e5e" stroke-width="2" fill="#5e5e5e"/><path d="M1072.33 881.38h106.93c3.3 0 6-2.7 6-6V706c0-3.3 2.68-6 6-6h89.42" stroke="#5e5e5e" stroke-width="2" fill="none"/><path d="M1072.36 882.38h-1.1l.14-2h.96" fill="#5e5e5e"/><path d="M1295.94 700l-14.26 4.64v-9.28z" stroke="#5e5e5e" stroke-width="2" fill="#5e5e5e"/><path d="M862.1 883.2l-14.5 17.53-7.6-17.5 13.86-.76 8.24.73zM881 883.2l14.67 17.64 7.45-17.6-13.7-.77-8.4.74z" fill="#fbbf93"/><path d="M862.1 871.5l-14.5-17.6-7.6 17.6 13.97.76 8.13-.77zM881 871.5l14.68-17.6 7.6 17.62-13.88.75-8.4-.77z" fill="#6b3a19"/><path d="M881 871.5l14.67-1v-16.6L881 857.33v14.17z" fill="#9d5025"/><path d="M903.27 871.5l-7.6-1v-16.6l7.6 3.42v14.2z" fill="#f58536"/><path d="M881 883.2l14.67 1.03v16.6L881 897.4V883.2z" fill="#9d5025"/><path d="M903.12 883.25l-7.45 1v16.6l7.45-3.37v-14.23zM862.1 871.5l-14.5-1v-16.6l14.5 3.42v14.17z" fill="#f58536"/><path d="M840 871.5l7.6-1v-16.6l-7.6 3.42v14.2z" fill="#9d5025"/><path d="M862.1 883.2l-14.5 1.03v16.6l14.5-3.45V883.2z" fill="#f58536"/><path d="M840 883.23l7.6 1v16.6l-7.6-3.4v-14.2z" fill="#9d5025"/><path d="M886.73 885.4l-15.1-1.35-15.25 1.32 15.24 26.3 15.1-26.27z" fill="#fbbf93"/><path d="M886.73 869.34l-15.1 1.36-15.25-1.33 15.24-26.3 15.1 26.27z" fill="#6b3a19"/><path d="M886.73 869.35l-15.1-1.97v-24.3l15.1 6.8v19.47z" fill="#f58536"/><path d="M856.38 869.36l15.25-2V843.1l-15.25 6.86v19.42z" fill="#9d5025"/><path d="M886.73 885.4l-15.1 1.96v24.3l15.1-6.8V885.4z" fill="#f58536"/><path d="M856.38 885.38l15.25 2v24.28l-15.25-6.86v-19.42z" fill="#9d5025"/><g><use xlink:href="#s" transform="matrix(1,0,0,1,840,911.6666666666667) translate(-8.70987654320988 17.77777777777778)"/><use xlink:href="#t" transform="matrix(1,0,0,1,840,911.6666666666667) translate(-22.814814814814817 44.44444444444444)"/></g><path d="M901 884.05h80.5M901.03 884.05H900" stroke="#5e5e5e" stroke-width="2" fill="none"/><path d="M996.76 884.05l-14.26 4.64v-9.3z" stroke="#5e5e5e" stroke-width="2" fill="#5e5e5e"/><path d="M772.33 891.38h49.17" stroke="#5e5e5e" stroke-width="2" fill="none"/><path d="M772.36 892.38h-1.1l.14-2h.96" fill="#5e5e5e"/><path d="M836.76 891.38L822.5 896v-9.26z" stroke="#5e5e5e" stroke-width="2" fill="#5e5e5e"/><defs><path fill="#333" d="M108 0H70L1-190h34L89-25l56-165h34" id="u"/><path fill="#333" d="M24-231v-30h32v30H24zM24 0v-190h32V0H24" id="v"/><path fill="#333" d="M114-163C36-179 61-72 57 0H25l-1-190h30c1 12-1 29 2 39 6-27 23-49 58-41v29" id="w"/><path fill="#333" d="M59-47c-2 24 18 29 38 22v24C64 9 27 4 27-40v-127H5v-23h24l9-43h21v43h35v23H59v120" id="x"/><path fill="#333" d="M84 4C-5 8 30-112 23-190h32v120c0 31 7 50 39 49 72-2 45-101 50-169h31l1 190h-30c-1-10 1-25-2-33-11 22-28 36-60 37" id="y"/><path fill="#333" d="M141-36C126-15 110 5 73 4 37 3 15-17 15-53c-1-64 63-63 125-63 3-35-9-54-41-54-24 1-41 7-42 31l-33-3c5-37 33-52 76-52 45 0 72 20 72 64v82c-1 20 7 32 28 27v20c-31 9-61-2-59-35zM48-53c0 20 12 33 32 33 41-3 63-29 60-74-43 2-92-5-92 41" id="z"/><path fill="#333" d="M24 0v-261h32V0H24" id="A"/><g id="a"><use transform="matrix(0.06172839506172839,0,0,0.06172839506172839,0,0)" xlink:href="#u"/><use transform="matrix(0.06172839506172839,0,0,0.06172839506172839,11.11111111111111,0)" xlink:href="#v"/><use transform="matrix(0.06172839506172839,0,0,0.06172839506172839,15.987654320987653,0)" xlink:href="#w"/><use transform="matrix(0.06172839506172839,0,0,0.06172839506172839,23.333333333333332,0)" xlink:href="#x"/><use transform="matrix(0.06172839506172839,0,0,0.06172839506172839,29.50617283950617,0)" xlink:href="#y"/><use transform="matrix(0.06172839506172839,0,0,0.06172839506172839,41.85185185185185,0)" xlink:href="#z"/><use transform="matrix(0.06172839506172839,0,0,0.06172839506172839,54.197530864197525,0)" xlink:href="#A"/></g><path fill="#333" d="M115-194c55 1 70 41 70 98S169 2 115 4C84 4 66-9 55-30l1 105H24l-1-265h31l2 30c10-21 28-34 59-34zm-8 174c40 0 45-34 45-75s-6-73-45-74c-42 0-51 32-51 76 0 43 10 73 51 73" id="B"/><path fill="#333" d="M100-194c63 0 86 42 84 106H49c0 40 14 67 53 68 26 1 43-12 49-29l28 8c-11 28-37 45-77 45C44 4 14-33 15-96c1-61 26-98 85-98zm52 81c6-60-76-77-97-28-3 7-6 17-6 28h103" id="C"/><g id="b"><use transform="matrix(0.06172839506172839,0,0,0.06172839506172839,0,0)" xlink:href="#B"/><use transform="matrix(0.06172839506172839,0,0,0.06172839506172839,12.345679012345679,0)" xlink:href="#w"/><use transform="matrix(0.06172839506172839,0,0,0.06172839506172839,19.691358024691358,0)" xlink:href="#v"/><use transform="matrix(0.06172839506172839,0,0,0.06172839506172839,24.5679012345679,0)" xlink:href="#u"/><use transform="matrix(0.06172839506172839,0,0,0.06172839506172839,35.67901234567901,0)" xlink:href="#z"/><use transform="matrix(0.06172839506172839,0,0,0.06172839506172839,48.02469135802469,0)" xlink:href="#x"/><use transform="matrix(0.06172839506172839,0,0,0.06172839506172839,54.19753086419753,0)" xlink:href="#C"/></g><path fill="#333" d="M96-169c-40 0-48 33-48 73s9 75 48 75c24 0 41-14 43-38l32 2c-6 37-31 61-74 61-59 0-76-41-82-99-10-93 101-131 147-64 4 7 5 14 7 22l-32 3c-4-21-16-35-41-35" id="D"/><path fill="#333" d="M100-194c62-1 85 37 85 99 1 63-27 99-86 99S16-35 15-95c0-66 28-99 85-99zM99-20c44 1 53-31 53-75 0-43-8-75-51-75s-53 32-53 75 10 74 51 75" id="E"/><path fill="#333" d="M85-194c31 0 48 13 60 33l-1-100h32l1 261h-30c-2-10 0-23-3-31C134-8 116 4 85 4 32 4 16-35 15-94c0-66 23-100 70-100zm9 24c-40 0-46 34-46 75 0 40 6 74 45 74 42 0 51-32 51-76 0-42-9-74-50-73" id="F"/><g id="c"><use transform="matrix(0.06172839506172839,0,0,0.06172839506172839,0,0)" xlink:href="#D"/><use transform="matrix(0.06172839506172839,0,0,0.06172839506172839,11.11111111111111,0)" xlink:href="#A"/><use transform="matrix(0.06172839506172839,0,0,0.06172839506172839,15.987654320987653,0)" xlink:href="#E"/><use transform="matrix(0.06172839506172839,0,0,0.06172839506172839,28.333333333333332,0)" xlink:href="#y"/><use transform="matrix(0.06172839506172839,0,0,0.06172839506172839,40.67901234567901,0)" xlink:href="#F"/></g><path fill="#248814" d="M30-248c87 1 191-15 191 75 0 78-77 80-158 76V0H30v-248zm33 125c57 0 124 11 124-50 0-59-68-47-124-48v98" id="G"/><path fill="#248814" d="M84 4C-5 8 30-112 23-190h32v120c0 31 7 50 39 49 72-2 45-101 50-169h31l1 190h-30c-1-10 1-25-2-33-11 22-28 36-60 37" id="H"/><path fill="#248814" d="M115-194c53 0 69 39 70 98 0 66-23 100-70 100C84 3 66-7 56-30L54 0H23l1-261h32v101c10-23 28-34 59-34zm-8 174c40 0 45-34 45-75 0-40-5-75-45-74-42 0-51 32-51 76 0 43 10 73 51 73" id="I"/><path fill="#248814" d="M24 0v-261h32V0H24" id="J"/><path fill="#248814" d="M24-231v-30h32v30H24zM24 0v-190h32V0H24" id="K"/><path fill="#248814" d="M96-169c-40 0-48 33-48 73s9 75 48 75c24 0 41-14 43-38l32 2c-6 37-31 61-74 61-59 0-76-41-82-99-10-93 101-131 147-64 4 7 5 14 7 22l-32 3c-4-21-16-35-41-35" id="L"/><g id="d"><use transform="matrix(0.05,0,0,0.05,0,0)" xlink:href="#G"/><use transform="matrix(0.05,0,0,0.05,12,0)" xlink:href="#H"/><use transform="matrix(0.05,0,0,0.05,22,0)" xlink:href="#I"/><use transform="matrix(0.05,0,0,0.05,32,0)" xlink:href="#J"/><use transform="matrix(0.05,0,0,0.05,35.95,0)" xlink:href="#K"/><use transform="matrix(0.05,0,0,0.05,39.900000000000006,0)" xlink:href="#L"/></g><path fill="#248814" d="M185-189c-5-48-123-54-124 2 14 75 158 14 163 119 3 78-121 87-175 55-17-10-28-26-33-46l33-7c5 56 141 63 141-1 0-78-155-14-162-118-5-82 145-84 179-34 5 7 8 16 11 25" id="M"/><path fill="#248814" d="M117-194c89-4 53 116 60 194h-32v-121c0-31-8-49-39-48C34-167 62-67 57 0H25l-1-190h30c1 10-1 24 2 32 11-22 29-35 61-36" id="N"/><path fill="#248814" d="M100-194c63 0 86 42 84 106H49c0 40 14 67 53 68 26 1 43-12 49-29l28 8c-11 28-37 45-77 45C44 4 14-33 15-96c1-61 26-98 85-98zm52 81c6-60-76-77-97-28-3 7-6 17-6 28h103" id="O"/><path fill="#248814" d="M59-47c-2 24 18 29 38 22v24C64 9 27 4 27-40v-127H5v-23h24l9-43h21v43h35v23H59v120" id="P"/><g id="e"><use transform="matrix(0.05,0,0,0.05,0,0)" xlink:href="#M"/><use transform="matrix(0.05,0,0,0.05,12,0)" xlink:href="#H"/><use transform="matrix(0.05,0,0,0.05,22,0)" xlink:href="#I"/><use transform="matrix(0.05,0,0,0.05,32,0)" xlink:href="#N"/><use transform="matrix(0.05,0,0,0.05,42,0)" xlink:href="#O"/><use transform="matrix(0.05,0,0,0.05,52,0)" xlink:href="#P"/></g><path fill="#333" d="M205 0l-28-72H64L36 0H1l101-248h38L239 0h-34zm-38-99l-47-123c-12 45-31 82-46 123h93" id="Q"/><path fill="#333" d="M115-194c53 0 69 39 70 98 0 66-23 100-70 100C84 3 66-7 56-30L54 0H23l1-261h32v101c10-23 28-34 59-34zm-8 174c40 0 45-34 45-75 0-40-5-75-45-74-42 0-51 32-51 76 0 43 10 73 51 73" id="R"/><path fill="#333" d="M179-190L93 31C79 59 56 82 12 73V49c39 6 53-20 64-50L1-190h34L92-34l54-156h33" id="S"/><g id="f"><use transform="matrix(0.06172839506172839,0,0,0.06172839506172839,0,0)" xlink:href="#Q"/><use transform="matrix(0.06172839506172839,0,0,0.06172839506172839,14.382716049382715,0)" xlink:href="#u"/><use transform="matrix(0.06172839506172839,0,0,0.06172839506172839,25.493827160493826,0)" xlink:href="#z"/><use transform="matrix(0.06172839506172839,0,0,0.06172839506172839,37.839506172839506,0)" xlink:href="#v"/><use transform="matrix(0.06172839506172839,0,0,0.06172839506172839,42.71604938271605,0)" xlink:href="#A"/><use transform="matrix(0.06172839506172839,0,0,0.06172839506172839,47.592592592592595,0)" xlink:href="#z"/><use transform="matrix(0.06172839506172839,0,0,0.06172839506172839,59.93827160493827,0)" xlink:href="#R"/><use transform="matrix(0.06172839506172839,0,0,0.06172839506172839,72.28395061728395,0)" xlink:href="#v"/><use transform="matrix(0.06172839506172839,0,0,0.06172839506172839,77.1604938271605,0)" xlink:href="#A"/><use transform="matrix(0.06172839506172839,0,0,0.06172839506172839,82.03703703703704,0)" xlink:href="#v"/><use transform="matrix(0.06172839506172839,0,0,0.06172839506172839,86.91358024691358,0)" xlink:href="#x"/><use transform="matrix(0.06172839506172839,0,0,0.06172839506172839,93.08641975308642,0)" xlink:href="#S"/></g><path fill="#333" d="M209 0H11v-25l151-195H24v-28h176v25L50-27h159V0" id="T"/><path fill="#333" d="M117-194c89-4 53 116 60 194h-32v-121c0-31-8-49-39-48C34-167 62-67 57 0H25l-1-190h30c1 10-1 24 2 32 11-22 29-35 61-36" id="U"/><g id="g"><use transform="matrix(0.06172839506172839,0,0,0.06172839506172839,0,0)" xlink:href="#T"/><use transform="matrix(0.06172839506172839,0,0,0.06172839506172839,13.518518518518517,0)" xlink:href="#E"/><use transform="matrix(0.06172839506172839,0,0,0.06172839506172839,25.864197530864196,0)" xlink:href="#U"/><use transform="matrix(0.06172839506172839,0,0,0.06172839506172839,38.20987654320987,0)" xlink:href="#C"/></g><path fill="#d86613" d="M30 0v-248h187v28H63v79h144v27H63v87h162V0H30" id="V"/><path fill="#d86613" d="M212-179c-10-28-35-45-73-45-59 0-87 40-87 99 0 60 29 101 89 101 43 0 62-24 78-52l27 14C228-24 195 4 139 4 59 4 22-46 18-125c-6-104 99-153 187-111 19 9 31 26 39 46" id="W"/><path fill="#d86613" d="M185-189c-5-48-123-54-124 2 14 75 158 14 163 119 3 78-121 87-175 55-17-10-28-26-33-46l33-7c5 56 141 63 141-1 0-78-155-14-162-118-5-82 145-84 179-34 5 7 8 16 11 25" id="X"/><g id="h"><use transform="matrix(0.05,0,0,0.05,0,0)" xlink:href="#V"/><use transform="matrix(0.05,0,0,0.05,12,0)" xlink:href="#W"/><use transform="matrix(0.05,0,0,0.05,24.950000000000003,0)" xlink:href="#X"/></g><path fill="#d86613" d="M101-251c82-7 93 87 43 132L82-64C71-53 59-42 53-27h129V0H18c2-99 128-94 128-182 0-28-16-43-45-43s-46 15-49 41l-32-3c6-41 34-60 81-64" id="Y"/><g id="i"><use transform="matrix(0.05,0,0,0.05,0,0)" xlink:href="#V"/><use transform="matrix(0.05,0,0,0.05,12,0)" xlink:href="#W"/><use transform="matrix(0.05,0,0,0.05,24.950000000000003,0)" xlink:href="#Y"/></g><path fill="#d86613" d="M100-194c62-1 85 37 85 99 1 63-27 99-86 99S16-35 15-95c0-66 28-99 85-99zM99-20c44 1 53-31 53-75 0-43-8-75-51-75s-53 32-53 75 10 74 51 75" id="Z"/><path fill="#d86613" d="M117-194c89-4 53 116 60 194h-32v-121c0-31-8-49-39-48C34-167 62-67 57 0H25l-1-190h30c1 10-1 24 2 32 11-22 29-35 61-36" id="aa"/><path fill="#d86613" d="M59-47c-2 24 18 29 38 22v24C64 9 27 4 27-40v-127H5v-23h24l9-43h21v43h35v23H59v120" id="ab"/><path fill="#d86613" d="M141-36C126-15 110 5 73 4 37 3 15-17 15-53c-1-64 63-63 125-63 3-35-9-54-41-54-24 1-41 7-42 31l-33-3c5-37 33-52 76-52 45 0 72 20 72 64v82c-1 20 7 32 28 27v20c-31 9-61-2-59-35zM48-53c0 20 12 33 32 33 41-3 63-29 60-74-43 2-92-5-92 41" id="ac"/><path fill="#d86613" d="M24-231v-30h32v30H24zM24 0v-190h32V0H24" id="ad"/><path fill="#d86613" d="M100-194c63 0 86 42 84 106H49c0 40 14 67 53 68 26 1 43-12 49-29l28 8c-11 28-37 45-77 45C44 4 14-33 15-96c1-61 26-98 85-98zm52 81c6-60-76-77-97-28-3 7-6 17-6 28h103" id="ae"/><path fill="#d86613" d="M114-163C36-179 61-72 57 0H25l-1-190h30c1 12-1 29 2 39 6-27 23-49 58-41v29" id="af"/><g id="j"><use transform="matrix(0.05,0,0,0.05,0,0)" xlink:href="#W"/><use transform="matrix(0.05,0,0,0.05,12.950000000000001,0)" xlink:href="#Z"/><use transform="matrix(0.05,0,0,0.05,22.950000000000003,0)" xlink:href="#aa"/><use transform="matrix(0.05,0,0,0.05,32.95,0)" xlink:href="#ab"/><use transform="matrix(0.05,0,0,0.05,37.95,0)" xlink:href="#ac"/><use transform="matrix(0.05,0,0,0.05,47.95,0)" xlink:href="#ad"/><use transform="matrix(0.05,0,0,0.05,51.900000000000006,0)" xlink:href="#aa"/><use transform="matrix(0.05,0,0,0.05,61.900000000000006,0)" xlink:href="#ae"/><use transform="matrix(0.05,0,0,0.05,71.9,0)" xlink:href="#af"/></g><path fill="#333" d="M232-93c-1 65-40 97-104 97C67 4 28-28 28-90v-158h33c8 89-33 224 67 224 102 0 64-133 71-224h33v155" id="ag"/><path fill="#333" d="M135-143c-3-34-86-38-87 0 15 53 115 12 119 90S17 21 10-45l28-5c4 36 97 45 98 0-10-56-113-15-118-90-4-57 82-63 122-42 12 7 21 19 24 35" id="ah"/><g id="k"><use transform="matrix(0.06172839506172839,0,0,0.06172839506172839,0,0)" xlink:href="#ag"/><use transform="matrix(0.06172839506172839,0,0,0.06172839506172839,15.987654320987653,0)" xlink:href="#ah"/><use transform="matrix(0.06172839506172839,0,0,0.06172839506172839,27.098765432098766,0)" xlink:href="#C"/><use transform="matrix(0.06172839506172839,0,0,0.06172839506172839,39.44444444444444,0)" xlink:href="#w"/><use transform="matrix(0.06172839506172839,0,0,0.06172839506172839,46.79012345679012,0)" xlink:href="#ah"/></g><path d="M194 0L95-120 63-95V0H30v-248h33v124l119-124h40L117-140 236 0h-42" id="ai"/><path d="M84 4C-5 8 30-112 23-190h32v120c0 31 7 50 39 49 72-2 45-101 50-169h31l1 190h-30c-1-10 1-25-2-33-11 22-28 36-60 37" id="aj"/><path d="M115-194c53 0 69 39 70 98 0 66-23 100-70 100C84 3 66-7 56-30L54 0H23l1-261h32v101c10-23 28-34 59-34zm-8 174c40 0 45-34 45-75 0-40-5-75-45-74-42 0-51 32-51 76 0 43 10 73 51 73" id="ak"/><path d="M100-194c63 0 86 42 84 106H49c0 40 14 67 53 68 26 1 43-12 49-29l28 8c-11 28-37 45-77 45C44 4 14-33 15-96c1-61 26-98 85-98zm52 81c6-60-76-77-97-28-3 7-6 17-6 28h103" id="al"/><path d="M114-163C36-179 61-72 57 0H25l-1-190h30c1 12-1 29 2 39 6-27 23-49 58-41v29" id="am"/><path d="M117-194c89-4 53 116 60 194h-32v-121c0-31-8-49-39-48C34-167 62-67 57 0H25l-1-190h30c1 10-1 24 2 32 11-22 29-35 61-36" id="an"/><path d="M59-47c-2 24 18 29 38 22v24C64 9 27 4 27-40v-127H5v-23h24l9-43h21v43h35v23H59v120" id="ao"/><path d="M135-143c-3-34-86-38-87 0 15 53 115 12 119 90S17 21 10-45l28-5c4 36 97 45 98 0-10-56-113-15-118-90-4-57 82-63 122-42 12 7 21 19 24 35" id="ap"/><g id="l"><use transform="matrix(0.05,0,0,0.05,0,0)" xlink:href="#ai"/><use transform="matrix(0.05,0,0,0.05,12,0)" xlink:href="#aj"/><use transform="matrix(0.05,0,0,0.05,22,0)" xlink:href="#ak"/><use transform="matrix(0.05,0,0,0.05,32,0)" xlink:href="#al"/><use transform="matrix(0.05,0,0,0.05,42,0)" xlink:href="#am"/><use transform="matrix(0.05,0,0,0.05,47.95,0)" xlink:href="#an"/><use transform="matrix(0.05,0,0,0.05,57.95,0)" xlink:href="#al"/><use transform="matrix(0.05,0,0,0.05,67.95,0)" xlink:href="#ao"/><use transform="matrix(0.05,0,0,0.05,72.95,0)" xlink:href="#al"/><use transform="matrix(0.05,0,0,0.05,82.95,0)" xlink:href="#ap"/></g><path d="M212-179c-10-28-35-45-73-45-59 0-87 40-87 99 0 60 29 101 89 101 43 0 62-24 78-52l27 14C228-24 195 4 139 4 59 4 22-46 18-125c-6-104 99-153 187-111 19 9 31 26 39 46" id="aq"/><path d="M24 0v-261h32V0H24" id="ar"/><g id="m"><use transform="matrix(0.05,0,0,0.05,0,0)" xlink:href="#aq"/><use transform="matrix(0.05,0,0,0.05,12.950000000000001,0)" xlink:href="#ar"/><use transform="matrix(0.05,0,0,0.05,16.900000000000002,0)" xlink:href="#aj"/><use transform="matrix(0.05,0,0,0.05,26.900000000000002,0)" xlink:href="#ap"/><use transform="matrix(0.05,0,0,0.05,35.900000000000006,0)" xlink:href="#ao"/><use transform="matrix(0.05,0,0,0.05,40.900000000000006,0)" xlink:href="#al"/><use transform="matrix(0.05,0,0,0.05,50.900000000000006,0)" xlink:href="#am"/></g><g id="n"><use transform="matrix(0.06172839506172839,0,0,0.06172839506172839,0,0)" xlink:href="#Q"/><use transform="matrix(0.06172839506172839,0,0,0.06172839506172839,14.814814814814813,0)" xlink:href="#B"/><use transform="matrix(0.06172839506172839,0,0,0.06172839506172839,27.160493827160494,0)" xlink:href="#B"/><use transform="matrix(0.06172839506172839,0,0,0.06172839506172839,39.50617283950617,0)" xlink:href="#A"/><use transform="matrix(0.06172839506172839,0,0,0.06172839506172839,44.382716049382715,0)" xlink:href="#v"/><use transform="matrix(0.06172839506172839,0,0,0.06172839506172839,49.25925925925926,0)" xlink:href="#D"/><use transform="matrix(0.06172839506172839,0,0,0.06172839506172839,60.37037037037037,0)" xlink:href="#z"/><use transform="matrix(0.06172839506172839,0,0,0.06172839506172839,72.71604938271605,0)" xlink:href="#x"/><use transform="matrix(0.06172839506172839,0,0,0.06172839506172839,78.88888888888889,0)" xlink:href="#v"/><use transform="matrix(0.06172839506172839,0,0,0.06172839506172839,83.76543209876543,0)" xlink:href="#E"/><use transform="matrix(0.06172839506172839,0,0,0.06172839506172839,96.11111111111111,0)" xlink:href="#U"/></g><path fill="#333" d="M30 0v-248h33v221h125V0H30" id="as"/><g id="o"><use transform="matrix(0.06172839506172839,0,0,0.06172839506172839,0,0)" xlink:href="#as"/><use transform="matrix(0.06172839506172839,0,0,0.06172839506172839,12.345679012345679,0)" xlink:href="#E"/><use transform="matrix(0.06172839506172839,0,0,0.06172839506172839,24.691358024691358,0)" xlink:href="#z"/><use transform="matrix(0.06172839506172839,0,0,0.06172839506172839,37.03703703703704,0)" xlink:href="#F"/></g><path fill="#333" d="M160-131c35 5 61 23 61 61C221 17 115-2 30 0v-248c76 3 177-17 177 60 0 33-19 50-47 57zm-97-11c50-1 110 9 110-42 0-47-63-36-110-37v79zm0 115c55-2 124 14 124-45 0-56-70-42-124-44v89" id="at"/><g id="p"><use transform="matrix(0.06172839506172839,0,0,0.06172839506172839,0,0)" xlink:href="#at"/><use transform="matrix(0.06172839506172839,0,0,0.06172839506172839,14.814814814814813,0)" xlink:href="#z"/><use transform="matrix(0.06172839506172839,0,0,0.06172839506172839,27.160493827160494,0)" xlink:href="#A"/><use transform="matrix(0.06172839506172839,0,0,0.06172839506172839,32.03703703703704,0)" xlink:href="#z"/><use transform="matrix(0.06172839506172839,0,0,0.06172839506172839,44.382716049382715,0)" xlink:href="#U"/><use transform="matrix(0.06172839506172839,0,0,0.06172839506172839,56.72839506172839,0)" xlink:href="#D"/><use transform="matrix(0.06172839506172839,0,0,0.06172839506172839,67.8395061728395,0)" xlink:href="#C"/><use transform="matrix(0.06172839506172839,0,0,0.06172839506172839,80.18518518518519,0)" xlink:href="#w"/></g><path fill="#333" d="M33 0v-248h34V0H33" id="au"/><g id="q"><use transform="matrix(0.06172839506172839,0,0,0.06172839506172839,0,0)" xlink:href="#au"/><use transform="matrix(0.06172839506172839,0,0,0.06172839506172839,6.172839506172839,0)" xlink:href="#U"/><use transform="matrix(0.06172839506172839,0,0,0.06172839506172839,18.51851851851852,0)" xlink:href="#x"/><use transform="matrix(0.06172839506172839,0,0,0.06172839506172839,24.691358024691358,0)" xlink:href="#C"/><use transform="matrix(0.06172839506172839,0,0,0.06172839506172839,37.03703703703704,0)" xlink:href="#w"/><use transform="matrix(0.06172839506172839,0,0,0.06172839506172839,44.382716049382715,0)" xlink:href="#U"/><use transform="matrix(0.06172839506172839,0,0,0.06172839506172839,56.72839506172839,0)" xlink:href="#C"/><use transform="matrix(0.06172839506172839,0,0,0.06172839506172839,69.07407407407408,0)" xlink:href="#x"/></g><path fill="#333" d="M177-190C167-65 218 103 67 71c-23-6-38-20-44-43l32-5c15 47 100 32 89-28v-30C133-14 115 1 83 1 29 1 15-40 15-95c0-56 16-97 71-98 29-1 48 16 59 35 1-10 0-23 2-32h30zM94-22c36 0 50-32 50-73 0-42-14-75-50-75-39 0-46 34-46 75s6 73 46 73" id="av"/><path fill="#333" d="M206 0h-36l-40-164L89 0H53L-1-190h32L70-26l43-164h34l41 164 42-164h31" id="aw"/><g id="r"><use transform="matrix(0.06172839506172839,0,0,0.06172839506172839,0,0)" xlink:href="#av"/><use transform="matrix(0.06172839506172839,0,0,0.06172839506172839,12.345679012345679,0)" xlink:href="#z"/><use transform="matrix(0.06172839506172839,0,0,0.06172839506172839,24.691358024691358,0)" xlink:href="#x"/><use transform="matrix(0.06172839506172839,0,0,0.06172839506172839,30.864197530864196,0)" xlink:href="#C"/><use transform="matrix(0.06172839506172839,0,0,0.06172839506172839,43.20987654320987,0)" xlink:href="#aw"/><use transform="matrix(0.06172839506172839,0,0,0.06172839506172839,59.197530864197525,0)" xlink:href="#z"/><use transform="matrix(0.06172839506172839,0,0,0.06172839506172839,71.5432098765432,0)" xlink:href="#S"/></g><path fill="#333" d="M210-169c-67 3-38 105-44 169h-31v-121c0-29-5-50-35-48C34-165 62-65 56 0H25l-1-190h30c1 10-1 24 2 32 10-44 99-50 107 0 11-21 27-35 58-36 85-2 47 119 55 194h-31v-121c0-29-5-49-35-48" id="ax"/><path fill="#333" d="M9 0v-24l116-142H16v-24h144v24L44-24h123V0H9" id="ay"/><g id="s"><use transform="matrix(0.06172839506172839,0,0,0.06172839506172839,0,0)" xlink:href="#Q"/><use transform="matrix(0.06172839506172839,0,0,0.06172839506172839,14.814814814814813,0)" xlink:href="#ax"/><use transform="matrix(0.06172839506172839,0,0,0.06172839506172839,33.2716049382716,0)" xlink:href="#z"/><use transform="matrix(0.06172839506172839,0,0,0.06172839506172839,45.61728395061728,0)" xlink:href="#ay"/><use transform="matrix(0.06172839506172839,0,0,0.06172839506172839,56.72839506172839,0)" xlink:href="#E"/><use transform="matrix(0.06172839506172839,0,0,0.06172839506172839,69.07407407407408,0)" xlink:href="#U"/></g><path fill="#333" d="M212-179c-10-28-35-45-73-45-59 0-87 40-87 99 0 60 29 101 89 101 43 0 62-24 78-52l27 14C228-24 195 4 139 4 59 4 22-46 18-125c-6-104 99-153 187-111 19 9 31 26 39 46" id="az"/><path fill="#333" d="M63-220v92h138v28H63V0H30v-248h175v28H63" id="aA"/><g id="t"><use transform="matrix(0.06172839506172839,0,0,0.06172839506172839,0,0)" xlink:href="#az"/><use transform="matrix(0.06172839506172839,0,0,0.06172839506172839,15.987654320987653,0)" xlink:href="#A"/><use transform="matrix(0.06172839506172839,0,0,0.06172839506172839,20.864197530864196,0)" xlink:href="#E"/><use transform="matrix(0.06172839506172839,0,0,0.06172839506172839,33.20987654320987,0)" xlink:href="#y"/><use transform="matrix(0.06172839506172839,0,0,0.06172839506172839,45.55555555555555,0)" xlink:href="#F"/><use transform="matrix(0.06172839506172839,0,0,0.06172839506172839,57.90123456790123,0)" xlink:href="#aA"/><use transform="matrix(0.06172839506172839,0,0,0.06172839506172839,71.41975308641975,0)" xlink:href="#w"/><use transform="matrix(0.06172839506172839,0,0,0.06172839506172839,78.76543209876543,0)" xlink:href="#E"/><use transform="matrix(0.06172839506172839,0,0,0.06172839506172839,91.11111111111111,0)" xlink:href="#U"/><use transform="matrix(0.06172839506172839,0,0,0.06172839506172839,103.4567901234568,0)" xlink:href="#x"/></g></defs></g></svg>